<?xml version="1.0" encoding="UTF-8" standalone="no"?>
<!-- Created with Inkscape (http://www.inkscape.org/) -->

<svg
   xmlns:dc="http://purl.org/dc/elements/1.1/"
   xmlns:cc="http://creativecommons.org/ns#"
   xmlns:rdf="http://www.w3.org/1999/02/22-rdf-syntax-ns#"
   xmlns:svg="http://www.w3.org/2000/svg"
   xmlns="http://www.w3.org/2000/svg"
   xmlns:sodipodi="http://sodipodi.sourceforge.net/DTD/sodipodi-0.dtd"
   xmlns:inkscape="http://www.inkscape.org/namespaces/inkscape"
   width="200mm"
   height="200mm"
   viewBox="0 0 200 200"
   version="1.1"
   id="svg823"
   inkscape:version="0.92.2 5c3e80d, 2017-08-06"
   sodipodi:docname="cranly_hex.svg">
  <defs
     id="defs817">
    <marker
       inkscape:isstock="true"
       style="overflow:visible"
       id="marker4450"
       refX="0.0"
       refY="0.0"
       orient="auto"
       inkscape:stockid="Arrow2Lstart">
      <path
         transform="scale(1.1) translate(1,0)"
         d="M 8.7185878,4.0337352 L -2.2072895,0.016013256 L 8.7185884,-4.0017078 C 6.9730900,-1.6296469 6.9831476,1.6157441 8.7185878,4.0337352 z "
         style="fill-rule:evenodd;stroke-width:0.625;stroke-linejoin:round;stroke:#d33f6a;stroke-opacity:1;fill:#d33f6a;fill-opacity:1"
         id="path4448" />
    </marker>
    <marker
       inkscape:isstock="true"
       style="overflow:visible"
       id="marker3332"
       refX="0.0"
       refY="0.0"
       orient="auto"
       inkscape:stockid="Arrow2Lstart">
      <path
         transform="scale(1.1) translate(1,0)"
         d="M 8.7185878,4.0337352 L -2.2072895,0.016013256 L 8.7185884,-4.0017078 C 6.9730900,-1.6296469 6.9831476,1.6157441 8.7185878,4.0337352 z "
         style="fill-rule:evenodd;stroke-width:0.625;stroke-linejoin:round;stroke:#d33f6a;stroke-opacity:1;fill:#d33f6a;fill-opacity:1"
         id="path3330" />
    </marker>
    <marker
       inkscape:stockid="Arrow2Lstart"
       orient="auto"
       refY="0.0"
       refX="0.0"
       id="marker3010"
       style="overflow:visible"
       inkscape:isstock="true">
      <path
         id="path3008"
         style="fill-rule:evenodd;stroke-width:0.625;stroke-linejoin:round;stroke:#c7cef5;stroke-opacity:1;fill:#c7cef5;fill-opacity:1"
         d="M 8.7185878,4.0337352 L -2.2072895,0.016013256 L 8.7185884,-4.0017078 C 6.9730900,-1.6296469 6.9831476,1.6157441 8.7185878,4.0337352 z "
         transform="scale(1.1) translate(1,0)" />
    </marker>
    <marker
       inkscape:stockid="Arrow1Lstart"
       orient="auto"
       refY="0.0"
       refX="0.0"
       id="Arrow1Lstart"
       style="overflow:visible"
       inkscape:isstock="true">
      <path
         id="path872"
         d="M 0.0,0.0 L 5.0,-5.0 L -12.5,0.0 L 5.0,5.0 L 0.0,0.0 z "
         style="fill-rule:evenodd;stroke:#000000;stroke-width:1pt;stroke-opacity:1;fill:#000000;fill-opacity:1"
         transform="scale(0.8) translate(12.5,0)" />
    </marker>
    <marker
       inkscape:stockid="TriangleOutL"
       orient="auto"
       refY="0.0"
       refX="0.0"
       id="TriangleOutL"
       style="overflow:visible"
       inkscape:isstock="true">
      <path
         id="path1014"
         d="M 5.77,0.0 L -2.88,5.0 L -2.88,-5.0 L 5.77,0.0 z "
         style="fill-rule:evenodd;stroke:#000000;stroke-width:1pt;stroke-opacity:1;fill:#000000;fill-opacity:1"
         transform="scale(0.8)" />
    </marker>
  </defs>
  <sodipodi:namedview
     id="base"
     pagecolor="#ffffff"
     bordercolor="#666666"
     borderopacity="1.0"
     inkscape:pageopacity="0.0"
     inkscape:pageshadow="2"
     inkscape:zoom="1.5583958"
     inkscape:cx="377.95276"
     inkscape:cy="377.95276"
     inkscape:document-units="mm"
     inkscape:current-layer="layer1"
     showgrid="true"
     inkscape:pagecheckerboard="false"
     borderlayer="false"
     inkscape:showpageshadow="false"
     showguides="true"
     inkscape:window-width="1680"
     inkscape:window-height="1028"
     inkscape:window-x="0"
     inkscape:window-y="0"
     inkscape:window-maximized="1"
     guidetolerance="10000"
     gridtolerance="10">
    <inkscape:grid
       type="xygrid"
       id="grid1405" />
  </sodipodi:namedview>
  <metadata
     id="metadata820">
    <rdf:RDF>
      <cc:Work
         rdf:about="">
        <dc:format>image/svg+xml</dc:format>
        <dc:type
           rdf:resource="http://purl.org/dc/dcmitype/StillImage" />
        <dc:title />
      </cc:Work>
    </rdf:RDF>
  </metadata>
  <g
     inkscape:label="Layer 1"
     inkscape:groupmode="layer"
     id="layer1"
     transform="translate(0,-97)">
    <path
       style="opacity:1;fill:#000000;fill-opacity:1;stroke-width:0.61424446"
       d="M 364.33203 43.363281 L 68.416016 214.36523 L 68.548828 556.13672 L 364.59961 726.90625 L 660.51562 555.90625 L 660.38281 214.13477 L 364.33203 43.363281 z M 365.43359 69.490234 L 636.91406 226.08789 L 637.03516 539.49414 L 365.67773 696.30469 L 94.197266 539.70703 L 94.076172 226.29883 L 365.43359 69.490234 z "
       id="path1388"
       transform="matrix(0.26458333,0,0,0.26458333,0,97)" />
    <path
       style="opacity:1;fill:#d5daf8;fill-opacity:1;stroke:none;stroke-width:0.163;stroke-miterlimit:4;stroke-dasharray:none;stroke-dashoffset:0;stroke-opacity:1"
       id="path818"
       sodipodi:type="arc"
       sodipodi:cx="103.74972"
       sodipodi:cy="252.22797"
       sodipodi:rx="10.583333"
       sodipodi:ry="10.583333"
       sodipodi:start="1.3726247"
       sodipodi:end="1.3089969"
       sodipodi:open="true"
       d="m 105.83333,262.60416 a 10.583333,10.583333 0 0 1 -12.425355,-8.12779 10.583333,10.583333 0 0 1 7.929125,-12.55307 10.583333,10.583333 0 0 1 12.67761,7.72845 10.583333,10.583333 0 0 1 -7.52582,12.79893" />
    <path
       d="m 105.83333,196.45834 a 10.583333,10.583333 0 0 1 -12.425355,-8.1278 10.583333,10.583333 0 0 1 7.929125,-12.55307 10.583333,10.583333 0 0 1 12.67761,7.72845 10.583333,10.583333 0 0 1 -7.52582,12.79893"
       sodipodi:open="true"
       sodipodi:end="1.3089969"
       sodipodi:start="1.3726247"
       sodipodi:ry="10.583333"
       sodipodi:rx="10.583333"
       sodipodi:cy="186.08214"
       sodipodi:cx="103.74972"
       sodipodi:type="arc"
       id="path840"
       style="opacity:1;fill:#d33f6a;fill-opacity:1;stroke:none;stroke-width:0.163;stroke-linejoin:round;stroke-miterlimit:4;stroke-dasharray:none;stroke-dashoffset:0;stroke-opacity:1" />
    <path
       style="opacity:1;fill:#4a6fe3;fill-opacity:1;stroke:none;stroke-width:0.163;stroke-miterlimit:4;stroke-dasharray:none;stroke-dashoffset:0;stroke-opacity:1"
       d="m 74.083333,209.6875 c -5.666265,1.13783 -11.197547,-2.48035 -12.425359,-8.1278 -1.227812,-5.64745 2.301925,-11.23558 7.92913,-12.55307 3.685838,-0.86296 7.378697,0.31536 9.883387,2.80635 1.319247,1.31202 2.308867,2.98822 2.794217,4.92211 1.406825,5.60554 -1.943374,11.30312 -7.525823,12.79893"
       id="path842"
       inkscape:connector-curvature="0"
       sodipodi:nodetypes="cssssc" />
    <path
       d="m 68.791669,241.43749 a 10.583333,10.583333 0 0 1 -12.425358,-8.1278 10.583333,10.583333 0 0 1 7.92913,-12.55307 10.583333,10.583333 0 0 1 12.677604,7.72846 10.583333,10.583333 0 0 1 -7.525823,12.79893"
       sodipodi:open="true"
       sodipodi:end="1.3089969"
       sodipodi:start="1.3726247"
       sodipodi:ry="10.583333"
       sodipodi:rx="10.583333"
       sodipodi:cy="231.06129"
       sodipodi:cx="66.708054"
       sodipodi:type="arc"
       id="path844"
       style="opacity:1;fill:#7f92e8;fill-opacity:1;stroke:none;stroke-width:0.163;stroke-miterlimit:4;stroke-dasharray:none;stroke-dashoffset:0;stroke-opacity:1" />
    <path
       d="m 113.77083,228.20834 a 10.583333,10.583333 0 0 1 -12.42535,-8.1278 10.583333,10.583333 0 0 1 7.92912,-12.55307 10.583333,10.583333 0 0 1 12.67761,7.72845 10.583333,10.583333 0 0 1 -7.52582,12.79893"
       sodipodi:open="true"
       sodipodi:end="1.3089969"
       sodipodi:start="1.3726247"
       sodipodi:ry="10.583333"
       sodipodi:rx="10.583333"
       sodipodi:cy="217.83214"
       sodipodi:cx="111.68722"
       sodipodi:type="arc"
       id="path866"
       style="opacity:1;fill:#4a6fe3;fill-opacity:1;stroke:none;stroke-width:0.163;stroke-miterlimit:4;stroke-dasharray:none;stroke-dashoffset:0;stroke-opacity:1" />
  </g>
</svg>
